<?xml version="1.0" encoding="utf-8" standalone="no"?>
<!DOCTYPE svg PUBLIC "-//W3C//DTD SVG 1.1//EN"
  "http://www.w3.org/Graphics/SVG/1.1/DTD/svg11.dtd">
<svg xmlns:xlink="http://www.w3.org/1999/xlink" width="864pt" height="432pt" viewBox="0 0 864 432" xmlns="http://www.w3.org/2000/svg" version="1.1">
 <metadata>
  <rdf:RDF xmlns:dc="http://purl.org/dc/elements/1.1/" xmlns:cc="http://creativecommons.org/ns#" xmlns:rdf="http://www.w3.org/1999/02/22-rdf-syntax-ns#">
   <cc:Work>
    <dc:type rdf:resource="http://purl.org/dc/dcmitype/StillImage"/>
    <dc:date>2025-10-07T00:24:09.614623</dc:date>
    <dc:format>image/svg+xml</dc:format>
    <dc:creator>
     <cc:Agent>
      <dc:title>Matplotlib v3.10.6, https://matplotlib.org/</dc:title>
     </cc:Agent>
    </dc:creator>
   </cc:Work>
  </rdf:RDF>
 </metadata>
 <defs>
  <style type="text/css">*{stroke-linejoin: round; stroke-linecap: butt}</style>
 </defs>
 <g id="figure_1">
  <g id="patch_1">
   <path d="M 0 432 
L 864 432 
L 864 0 
L 0 0 
z
" style="fill: #ffffff"/>
  </g>
  <g id="axes_1">
   <g id="text_1">
    <g id="patch_2">
     <path d="M 219.207031 241.719088 
L 241.547969 241.719088 
Q 247.147969 241.719088 247.147969 236.119088 
L 247.147969 222.569713 
Q 247.147969 216.969713 241.547969 216.969713 
L 219.207031 216.969713 
Q 213.607031 216.969713 213.607031 222.569713 
L 213.607031 236.119088 
Q 213.607031 241.719088 219.207031 241.719088 
z
" style="fill: #ffeda0; stroke: #fdae6b; stroke-width: 2; stroke-linejoin: miter"/>
    </g>
    <!-- rey -->
    <g transform="translate(219.207031 233.207525) scale(0.14 -0.14)">
     <defs>
      <path id="DejaVuSans-72" d="M 2631 2963 
Q 2534 3019 2420 3045 
Q 2306 3072 2169 3072 
Q 1681 3072 1420 2755 
Q 1159 2438 1159 1844 
L 1159 0 
L 581 0 
L 581 3500 
L 1159 3500 
L 1159 2956 
Q 1341 3275 1631 3429 
Q 1922 3584 2338 3584 
Q 2397 3584 2469 3576 
Q 2541 3569 2628 3553 
L 2631 2963 
z
" transform="scale(0.015625)"/>
      <path id="DejaVuSans-65" d="M 3597 1894 
L 3597 1613 
L 953 1613 
Q 991 1019 1311 708 
Q 1631 397 2203 397 
Q 2534 397 2845 478 
Q 3156 559 3463 722 
L 3463 178 
Q 3153 47 2828 -22 
Q 2503 -91 2169 -91 
Q 1331 -91 842 396 
Q 353 884 353 1716 
Q 353 2575 817 3079 
Q 1281 3584 2069 3584 
Q 2775 3584 3186 3129 
Q 3597 2675 3597 1894 
z
M 3022 2063 
Q 3016 2534 2758 2815 
Q 2500 3097 2075 3097 
Q 1594 3097 1305 2825 
Q 1016 2553 972 2059 
L 3022 2063 
z
" transform="scale(0.015625)"/>
      <path id="DejaVuSans-79" d="M 2059 -325 
Q 1816 -950 1584 -1140 
Q 1353 -1331 966 -1331 
L 506 -1331 
L 506 -850 
L 844 -850 
Q 1081 -850 1212 -737 
Q 1344 -625 1503 -206 
L 1606 56 
L 191 3500 
L 800 3500 
L 1894 763 
L 2988 3500 
L 3597 3500 
L 2059 -325 
z
" transform="scale(0.015625)"/>
     </defs>
     <use xlink:href="#DejaVuSans-72"/>
     <use xlink:href="#DejaVuSans-65" transform="translate(38.863281 0)"/>
     <use xlink:href="#DejaVuSans-79" transform="translate(100.386719 0)"/>
    </g>
   </g>
   <g id="text_2">
    <g id="patch_3">
     <path d="M 119.723727 130.710008 
L 167.446227 130.710008 
Q 173.046227 130.710008 173.046227 125.110008 
L 173.046227 111.560633 
Q 173.046227 105.960633 167.446227 105.960633 
L 119.723727 105.960633 
Q 114.123727 105.960633 114.123727 111.560633 
L 114.123727 125.110008 
Q 114.123727 130.710008 119.723727 130.710008 
z
" style="fill: #c6dbef; stroke: #6baed6; stroke-width: 2; stroke-linejoin: miter"/>
    </g>
    <!-- corona -->
    <g transform="translate(119.723727 122.198445) scale(0.14 -0.14)">
     <defs>
      <path id="DejaVuSans-63" d="M 3122 3366 
L 3122 2828 
Q 2878 2963 2633 3030 
Q 2388 3097 2138 3097 
Q 1578 3097 1268 2742 
Q 959 2388 959 1747 
Q 959 1106 1268 751 
Q 1578 397 2138 397 
Q 2388 397 2633 464 
Q 2878 531 3122 666 
L 3122 134 
Q 2881 22 2623 -34 
Q 2366 -91 2075 -91 
Q 1284 -91 818 406 
Q 353 903 353 1747 
Q 353 2603 823 3093 
Q 1294 3584 2113 3584 
Q 2378 3584 2631 3529 
Q 2884 3475 3122 3366 
z
" transform="scale(0.015625)"/>
      <path id="DejaVuSans-6f" d="M 1959 3097 
Q 1497 3097 1228 2736 
Q 959 2375 959 1747 
Q 959 1119 1226 758 
Q 1494 397 1959 397 
Q 2419 397 2687 759 
Q 2956 1122 2956 1747 
Q 2956 2369 2687 2733 
Q 2419 3097 1959 3097 
z
M 1959 3584 
Q 2709 3584 3137 3096 
Q 3566 2609 3566 1747 
Q 3566 888 3137 398 
Q 2709 -91 1959 -91 
Q 1206 -91 779 398 
Q 353 888 353 1747 
Q 353 2609 779 3096 
Q 1206 3584 1959 3584 
z
" transform="scale(0.015625)"/>
      <path id="DejaVuSans-6e" d="M 3513 2113 
L 3513 0 
L 2938 0 
L 2938 2094 
Q 2938 2591 2744 2837 
Q 2550 3084 2163 3084 
Q 1697 3084 1428 2787 
Q 1159 2491 1159 1978 
L 1159 0 
L 581 0 
L 581 3500 
L 1159 3500 
L 1159 2956 
Q 1366 3272 1645 3428 
Q 1925 3584 2291 3584 
Q 2894 3584 3203 3211 
Q 3513 2838 3513 2113 
z
" transform="scale(0.015625)"/>
      <path id="DejaVuSans-61" d="M 2194 1759 
Q 1497 1759 1228 1600 
Q 959 1441 959 1056 
Q 959 750 1161 570 
Q 1363 391 1709 391 
Q 2188 391 2477 730 
Q 2766 1069 2766 1631 
L 2766 1759 
L 2194 1759 
z
M 3341 1997 
L 3341 0 
L 2766 0 
L 2766 531 
Q 2569 213 2275 61 
Q 1981 -91 1556 -91 
Q 1019 -91 701 211 
Q 384 513 384 1019 
Q 384 1609 779 1909 
Q 1175 2209 1959 2209 
L 2766 2209 
L 2766 2266 
Q 2766 2663 2505 2880 
Q 2244 3097 1772 3097 
Q 1472 3097 1187 3025 
Q 903 2953 641 2809 
L 641 3341 
Q 956 3463 1253 3523 
Q 1550 3584 1831 3584 
Q 2591 3584 2966 3190 
Q 3341 2797 3341 1997 
z
" transform="scale(0.015625)"/>
     </defs>
     <use xlink:href="#DejaVuSans-63"/>
     <use xlink:href="#DejaVuSans-6f" transform="translate(54.980469 0)"/>
     <use xlink:href="#DejaVuSans-72" transform="translate(116.162109 0)"/>
     <use xlink:href="#DejaVuSans-6f" transform="translate(155.025391 0)"/>
     <use xlink:href="#DejaVuSans-6e" transform="translate(216.207031 0)"/>
     <use xlink:href="#DejaVuSans-61" transform="translate(279.585938 0)"/>
    </g>
   </g>
   <g id="patch_4">
    <path d="M 216.87173 212.070295 
Q 188.734088 176.081783 161.973725 141.854834 
" style="fill: none; stroke: #2a3f5f; stroke-width: 2; stroke-linecap: round"/>
    <path d="M 162.861887 146.237888 
L 161.973725 141.854834 
L 166.013066 143.774137 
" style="fill: none; stroke: #2a3f5f; stroke-width: 2; stroke-linecap: round"/>
   </g>
   <g id="text_3">
    <g id="patch_5">
     <path d="M 298.703148 130.710008 
L 335.636898 130.710008 
Q 341.236898 130.710008 341.236898 125.110008 
L 341.236898 111.560633 
Q 341.236898 105.960633 335.636898 105.960633 
L 298.703148 105.960633 
Q 293.103148 105.960633 293.103148 111.560633 
L 293.103148 125.110008 
Q 293.103148 130.710008 298.703148 130.710008 
z
" style="fill: #c6dbef; stroke: #6baed6; stroke-width: 2; stroke-linejoin: miter"/>
    </g>
    <!-- trono -->
    <g transform="translate(298.703148 122.198445) scale(0.14 -0.14)">
     <defs>
      <path id="DejaVuSans-74" d="M 1172 4494 
L 1172 3500 
L 2356 3500 
L 2356 3053 
L 1172 3053 
L 1172 1153 
Q 1172 725 1289 603 
Q 1406 481 1766 481 
L 2356 481 
L 2356 0 
L 1766 0 
Q 1100 0 847 248 
Q 594 497 594 1153 
L 594 3053 
L 172 3053 
L 172 3500 
L 594 3500 
L 594 4494 
L 1172 4494 
z
" transform="scale(0.015625)"/>
     </defs>
     <use xlink:href="#DejaVuSans-74"/>
     <use xlink:href="#DejaVuSans-72" transform="translate(39.208984 0)"/>
     <use xlink:href="#DejaVuSans-6f" transform="translate(78.072266 0)"/>
     <use xlink:href="#DejaVuSans-6e" transform="translate(139.253906 0)"/>
     <use xlink:href="#DejaVuSans-6f" transform="translate(202.632812 0)"/>
    </g>
   </g>
   <g id="patch_6">
    <path d="M 243.88327 212.070295 
Q 272.020912 176.081783 298.781275 141.854834 
" style="fill: none; stroke: #2a3f5f; stroke-width: 2; stroke-linecap: round"/>
    <path d="M 294.741934 143.774137 
L 298.781275 141.854834 
L 297.893113 146.237888 
" style="fill: none; stroke: #2a3f5f; stroke-width: 2; stroke-linecap: round"/>
   </g>
   <g id="text_4">
    <g id="patch_7">
     <path d="M 125.887009 352.728168 
L 161.282946 352.728168 
Q 166.882946 352.728168 166.882946 347.128168 
L 166.882946 333.578793 
Q 166.882946 327.978792 161.282946 327.978792 
L 125.887009 327.978792 
Q 120.287009 327.978792 120.287009 333.578793 
L 120.287009 347.128168 
Q 120.287009 352.728168 125.887009 352.728168 
z
" style="fill: #c6dbef; stroke: #6baed6; stroke-width: 2; stroke-linejoin: miter"/>
    </g>
    <!-- reina -->
    <g transform="translate(125.887009 344.216605) scale(0.14 -0.14)">
     <defs>
      <path id="DejaVuSans-69" d="M 603 3500 
L 1178 3500 
L 1178 0 
L 603 0 
L 603 3500 
z
M 603 4863 
L 1178 4863 
L 1178 4134 
L 603 4134 
L 603 4863 
z
" transform="scale(0.015625)"/>
     </defs>
     <use xlink:href="#DejaVuSans-72"/>
     <use xlink:href="#DejaVuSans-65" transform="translate(38.863281 0)"/>
     <use xlink:href="#DejaVuSans-69" transform="translate(100.386719 0)"/>
     <use xlink:href="#DejaVuSans-6e" transform="translate(128.169922 0)"/>
     <use xlink:href="#DejaVuSans-61" transform="translate(191.548828 0)"/>
    </g>
   </g>
   <g id="patch_8">
    <path d="M 216.87173 246.618505 
Q 188.734088 282.607017 161.973725 316.833966 
" style="fill: none; stroke: #2a3f5f; stroke-width: 2; stroke-linecap: round"/>
    <path d="M 166.013066 314.914663 
L 161.973725 316.833966 
L 162.861887 312.450912 
" style="fill: none; stroke: #2a3f5f; stroke-width: 2; stroke-linecap: round"/>
   </g>
   <g id="text_5">
    <g id="patch_9">
     <path d="M 292.52346 352.728168 
L 341.816585 352.728168 
Q 347.416585 352.728168 347.416585 347.128168 
L 347.416585 333.578793 
Q 347.416585 327.978792 341.816585 327.978792 
L 292.52346 327.978792 
Q 286.92346 327.978792 286.92346 333.578793 
L 286.92346 347.128168 
Q 286.92346 352.728168 292.52346 352.728168 
z
" style="fill: #c6dbef; stroke: #6baed6; stroke-width: 2; stroke-linejoin: miter"/>
    </g>
    <!-- castillo -->
    <g transform="translate(292.52346 344.216605) scale(0.14 -0.14)">
     <defs>
      <path id="DejaVuSans-73" d="M 2834 3397 
L 2834 2853 
Q 2591 2978 2328 3040 
Q 2066 3103 1784 3103 
Q 1356 3103 1142 2972 
Q 928 2841 928 2578 
Q 928 2378 1081 2264 
Q 1234 2150 1697 2047 
L 1894 2003 
Q 2506 1872 2764 1633 
Q 3022 1394 3022 966 
Q 3022 478 2636 193 
Q 2250 -91 1575 -91 
Q 1294 -91 989 -36 
Q 684 19 347 128 
L 347 722 
Q 666 556 975 473 
Q 1284 391 1588 391 
Q 1994 391 2212 530 
Q 2431 669 2431 922 
Q 2431 1156 2273 1281 
Q 2116 1406 1581 1522 
L 1381 1569 
Q 847 1681 609 1914 
Q 372 2147 372 2553 
Q 372 3047 722 3315 
Q 1072 3584 1716 3584 
Q 2034 3584 2315 3537 
Q 2597 3491 2834 3397 
z
" transform="scale(0.015625)"/>
      <path id="DejaVuSans-6c" d="M 603 4863 
L 1178 4863 
L 1178 0 
L 603 0 
L 603 4863 
z
" transform="scale(0.015625)"/>
     </defs>
     <use xlink:href="#DejaVuSans-63"/>
     <use xlink:href="#DejaVuSans-61" transform="translate(54.980469 0)"/>
     <use xlink:href="#DejaVuSans-73" transform="translate(116.259766 0)"/>
     <use xlink:href="#DejaVuSans-74" transform="translate(168.359375 0)"/>
     <use xlink:href="#DejaVuSans-69" transform="translate(207.568359 0)"/>
     <use xlink:href="#DejaVuSans-6c" transform="translate(235.351562 0)"/>
     <use xlink:href="#DejaVuSans-6c" transform="translate(263.134766 0)"/>
     <use xlink:href="#DejaVuSans-6f" transform="translate(290.917969 0)"/>
    </g>
   </g>
   <g id="patch_10">
    <path d="M 243.88327 246.618505 
Q 272.020912 282.607017 298.781275 316.833966 
" style="fill: none; stroke: #2a3f5f; stroke-width: 2; stroke-linecap: round"/>
    <path d="M 297.893113 312.450912 
L 298.781275 316.833966 
L 294.741934 314.914663 
" style="fill: none; stroke: #2a3f5f; stroke-width: 2; stroke-linecap: round"/>
   </g>
   <g id="text_6">
    <!-- La palabra central genera múltiples pares (positivo) con cada palabra de contexto. -->
    <g transform="translate(-18.55875 416.853554) scale(0.12 -0.12)">
     <defs>
      <path id="DejaVuSans-4c" d="M 628 4666 
L 1259 4666 
L 1259 531 
L 3531 531 
L 3531 0 
L 628 0 
L 628 4666 
z
" transform="scale(0.015625)"/>
      <path id="DejaVuSans-20" transform="scale(0.015625)"/>
      <path id="DejaVuSans-70" d="M 1159 525 
L 1159 -1331 
L 581 -1331 
L 581 3500 
L 1159 3500 
L 1159 2969 
Q 1341 3281 1617 3432 
Q 1894 3584 2278 3584 
Q 2916 3584 3314 3078 
Q 3713 2572 3713 1747 
Q 3713 922 3314 415 
Q 2916 -91 2278 -91 
Q 1894 -91 1617 61 
Q 1341 213 1159 525 
z
M 3116 1747 
Q 3116 2381 2855 2742 
Q 2594 3103 2138 3103 
Q 1681 3103 1420 2742 
Q 1159 2381 1159 1747 
Q 1159 1113 1420 752 
Q 1681 391 2138 391 
Q 2594 391 2855 752 
Q 3116 1113 3116 1747 
z
" transform="scale(0.015625)"/>
      <path id="DejaVuSans-62" d="M 3116 1747 
Q 3116 2381 2855 2742 
Q 2594 3103 2138 3103 
Q 1681 3103 1420 2742 
Q 1159 2381 1159 1747 
Q 1159 1113 1420 752 
Q 1681 391 2138 391 
Q 2594 391 2855 752 
Q 3116 1113 3116 1747 
z
M 1159 2969 
Q 1341 3281 1617 3432 
Q 1894 3584 2278 3584 
Q 2916 3584 3314 3078 
Q 3713 2572 3713 1747 
Q 3713 922 3314 415 
Q 2916 -91 2278 -91 
Q 1894 -91 1617 61 
Q 1341 213 1159 525 
L 1159 0 
L 581 0 
L 581 4863 
L 1159 4863 
L 1159 2969 
z
" transform="scale(0.015625)"/>
      <path id="DejaVuSans-67" d="M 2906 1791 
Q 2906 2416 2648 2759 
Q 2391 3103 1925 3103 
Q 1463 3103 1205 2759 
Q 947 2416 947 1791 
Q 947 1169 1205 825 
Q 1463 481 1925 481 
Q 2391 481 2648 825 
Q 2906 1169 2906 1791 
z
M 3481 434 
Q 3481 -459 3084 -895 
Q 2688 -1331 1869 -1331 
Q 1566 -1331 1297 -1286 
Q 1028 -1241 775 -1147 
L 775 -588 
Q 1028 -725 1275 -790 
Q 1522 -856 1778 -856 
Q 2344 -856 2625 -561 
Q 2906 -266 2906 331 
L 2906 616 
Q 2728 306 2450 153 
Q 2172 0 1784 0 
Q 1141 0 747 490 
Q 353 981 353 1791 
Q 353 2603 747 3093 
Q 1141 3584 1784 3584 
Q 2172 3584 2450 3431 
Q 2728 3278 2906 2969 
L 2906 3500 
L 3481 3500 
L 3481 434 
z
" transform="scale(0.015625)"/>
      <path id="DejaVuSans-6d" d="M 3328 2828 
Q 3544 3216 3844 3400 
Q 4144 3584 4550 3584 
Q 5097 3584 5394 3201 
Q 5691 2819 5691 2113 
L 5691 0 
L 5113 0 
L 5113 2094 
Q 5113 2597 4934 2840 
Q 4756 3084 4391 3084 
Q 3944 3084 3684 2787 
Q 3425 2491 3425 1978 
L 3425 0 
L 2847 0 
L 2847 2094 
Q 2847 2600 2669 2842 
Q 2491 3084 2119 3084 
Q 1678 3084 1418 2786 
Q 1159 2488 1159 1978 
L 1159 0 
L 581 0 
L 581 3500 
L 1159 3500 
L 1159 2956 
Q 1356 3278 1631 3431 
Q 1906 3584 2284 3584 
Q 2666 3584 2933 3390 
Q 3200 3197 3328 2828 
z
" transform="scale(0.015625)"/>
      <path id="DejaVuSans-fa" d="M 544 1381 
L 544 3500 
L 1119 3500 
L 1119 1403 
Q 1119 906 1312 657 
Q 1506 409 1894 409 
Q 2359 409 2629 706 
Q 2900 1003 2900 1516 
L 2900 3500 
L 3475 3500 
L 3475 0 
L 2900 0 
L 2900 538 
Q 2691 219 2414 64 
Q 2138 -91 1772 -91 
Q 1169 -91 856 284 
Q 544 659 544 1381 
z
M 1991 3584 
L 1991 3584 
z
M 2418 5119 
L 3040 5119 
L 2022 3944 
L 1543 3944 
L 2418 5119 
z
" transform="scale(0.015625)"/>
      <path id="DejaVuSans-28" d="M 1984 4856 
Q 1566 4138 1362 3434 
Q 1159 2731 1159 2009 
Q 1159 1288 1364 580 
Q 1569 -128 1984 -844 
L 1484 -844 
Q 1016 -109 783 600 
Q 550 1309 550 2009 
Q 550 2706 781 3412 
Q 1013 4119 1484 4856 
L 1984 4856 
z
" transform="scale(0.015625)"/>
      <path id="DejaVuSans-76" d="M 191 3500 
L 800 3500 
L 1894 563 
L 2988 3500 
L 3597 3500 
L 2284 0 
L 1503 0 
L 191 3500 
z
" transform="scale(0.015625)"/>
      <path id="DejaVuSans-29" d="M 513 4856 
L 1013 4856 
Q 1481 4119 1714 3412 
Q 1947 2706 1947 2009 
Q 1947 1309 1714 600 
Q 1481 -109 1013 -844 
L 513 -844 
Q 928 -128 1133 580 
Q 1338 1288 1338 2009 
Q 1338 2731 1133 3434 
Q 928 4138 513 4856 
z
" transform="scale(0.015625)"/>
      <path id="DejaVuSans-64" d="M 2906 2969 
L 2906 4863 
L 3481 4863 
L 3481 0 
L 2906 0 
L 2906 525 
Q 2725 213 2448 61 
Q 2172 -91 1784 -91 
Q 1150 -91 751 415 
Q 353 922 353 1747 
Q 353 2572 751 3078 
Q 1150 3584 1784 3584 
Q 2172 3584 2448 3432 
Q 2725 3281 2906 2969 
z
M 947 1747 
Q 947 1113 1208 752 
Q 1469 391 1925 391 
Q 2381 391 2643 752 
Q 2906 1113 2906 1747 
Q 2906 2381 2643 2742 
Q 2381 3103 1925 3103 
Q 1469 3103 1208 2742 
Q 947 2381 947 1747 
z
" transform="scale(0.015625)"/>
      <path id="DejaVuSans-78" d="M 3513 3500 
L 2247 1797 
L 3578 0 
L 2900 0 
L 1881 1375 
L 863 0 
L 184 0 
L 1544 1831 
L 300 3500 
L 978 3500 
L 1906 2253 
L 2834 3500 
L 3513 3500 
z
" transform="scale(0.015625)"/>
      <path id="DejaVuSans-2e" d="M 684 794 
L 1344 794 
L 1344 0 
L 684 0 
L 684 794 
z
" transform="scale(0.015625)"/>
     </defs>
     <use xlink:href="#DejaVuSans-4c"/>
     <use xlink:href="#DejaVuSans-61" transform="translate(55.712891 0)"/>
     <use xlink:href="#DejaVuSans-20" transform="translate(116.992188 0)"/>
     <use xlink:href="#DejaVuSans-70" transform="translate(148.779297 0)"/>
     <use xlink:href="#DejaVuSans-61" transform="translate(212.255859 0)"/>
     <use xlink:href="#DejaVuSans-6c" transform="translate(273.535156 0)"/>
     <use xlink:href="#DejaVuSans-61" transform="translate(301.318359 0)"/>
     <use xlink:href="#DejaVuSans-62" transform="translate(362.597656 0)"/>
     <use xlink:href="#DejaVuSans-72" transform="translate(426.074219 0)"/>
     <use xlink:href="#DejaVuSans-61" transform="translate(467.1875 0)"/>
     <use xlink:href="#DejaVuSans-20" transform="translate(528.466797 0)"/>
     <use xlink:href="#DejaVuSans-63" transform="translate(560.253906 0)"/>
     <use xlink:href="#DejaVuSans-65" transform="translate(615.234375 0)"/>
     <use xlink:href="#DejaVuSans-6e" transform="translate(676.757812 0)"/>
     <use xlink:href="#DejaVuSans-74" transform="translate(740.136719 0)"/>
     <use xlink:href="#DejaVuSans-72" transform="translate(779.345703 0)"/>
     <use xlink:href="#DejaVuSans-61" transform="translate(820.458984 0)"/>
     <use xlink:href="#DejaVuSans-6c" transform="translate(881.738281 0)"/>
     <use xlink:href="#DejaVuSans-20" transform="translate(909.521484 0)"/>
     <use xlink:href="#DejaVuSans-67" transform="translate(941.308594 0)"/>
     <use xlink:href="#DejaVuSans-65" transform="translate(1004.785156 0)"/>
     <use xlink:href="#DejaVuSans-6e" transform="translate(1066.308594 0)"/>
     <use xlink:href="#DejaVuSans-65" transform="translate(1129.6875 0)"/>
     <use xlink:href="#DejaVuSans-72" transform="translate(1191.210938 0)"/>
     <use xlink:href="#DejaVuSans-61" transform="translate(1232.324219 0)"/>
     <use xlink:href="#DejaVuSans-20" transform="translate(1293.603516 0)"/>
     <use xlink:href="#DejaVuSans-6d" transform="translate(1325.390625 0)"/>
     <use xlink:href="#DejaVuSans-fa" transform="translate(1422.802734 0)"/>
     <use xlink:href="#DejaVuSans-6c" transform="translate(1486.181641 0)"/>
     <use xlink:href="#DejaVuSans-74" transform="translate(1513.964844 0)"/>
     <use xlink:href="#DejaVuSans-69" transform="translate(1553.173828 0)"/>
     <use xlink:href="#DejaVuSans-70" transform="translate(1580.957031 0)"/>
     <use xlink:href="#DejaVuSans-6c" transform="translate(1644.433594 0)"/>
     <use xlink:href="#DejaVuSans-65" transform="translate(1672.216797 0)"/>
     <use xlink:href="#DejaVuSans-73" transform="translate(1733.740234 0)"/>
     <use xlink:href="#DejaVuSans-20" transform="translate(1785.839844 0)"/>
     <use xlink:href="#DejaVuSans-70" transform="translate(1817.626953 0)"/>
     <use xlink:href="#DejaVuSans-61" transform="translate(1881.103516 0)"/>
     <use xlink:href="#DejaVuSans-72" transform="translate(1942.382812 0)"/>
     <use xlink:href="#DejaVuSans-65" transform="translate(1981.246094 0)"/>
     <use xlink:href="#DejaVuSans-73" transform="translate(2042.769531 0)"/>
     <use xlink:href="#DejaVuSans-20" transform="translate(2094.869141 0)"/>
     <use xlink:href="#DejaVuSans-28" transform="translate(2126.65625 0)"/>
     <use xlink:href="#DejaVuSans-70" transform="translate(2165.669922 0)"/>
     <use xlink:href="#DejaVuSans-6f" transform="translate(2229.146484 0)"/>
     <use xlink:href="#DejaVuSans-73" transform="translate(2290.328125 0)"/>
     <use xlink:href="#DejaVuSans-69" transform="translate(2342.427734 0)"/>
     <use xlink:href="#DejaVuSans-74" transform="translate(2370.210938 0)"/>
     <use xlink:href="#DejaVuSans-69" transform="translate(2409.419922 0)"/>
     <use xlink:href="#DejaVuSans-76" transform="translate(2437.203125 0)"/>
     <use xlink:href="#DejaVuSans-6f" transform="translate(2496.382812 0)"/>
     <use xlink:href="#DejaVuSans-29" transform="translate(2557.564453 0)"/>
     <use xlink:href="#DejaVuSans-20" transform="translate(2596.578125 0)"/>
     <use xlink:href="#DejaVuSans-63" transform="translate(2628.365234 0)"/>
     <use xlink:href="#DejaVuSans-6f" transform="translate(2683.345703 0)"/>
     <use xlink:href="#DejaVuSans-6e" transform="translate(2744.527344 0)"/>
     <use xlink:href="#DejaVuSans-20" transform="translate(2807.90625 0)"/>
     <use xlink:href="#DejaVuSans-63" transform="translate(2839.693359 0)"/>
     <use xlink:href="#DejaVuSans-61" transform="translate(2894.673828 0)"/>
     <use xlink:href="#DejaVuSans-64" transform="translate(2955.953125 0)"/>
     <use xlink:href="#DejaVuSans-61" transform="translate(3019.429688 0)"/>
     <use xlink:href="#DejaVuSans-20" transform="translate(3080.708984 0)"/>
     <use xlink:href="#DejaVuSans-70" transform="translate(3112.496094 0)"/>
     <use xlink:href="#DejaVuSans-61" transform="translate(3175.972656 0)"/>
     <use xlink:href="#DejaVuSans-6c" transform="translate(3237.251953 0)"/>
     <use xlink:href="#DejaVuSans-61" transform="translate(3265.035156 0)"/>
     <use xlink:href="#DejaVuSans-62" transform="translate(3326.314453 0)"/>
     <use xlink:href="#DejaVuSans-72" transform="translate(3389.791016 0)"/>
     <use xlink:href="#DejaVuSans-61" transform="translate(3430.904297 0)"/>
     <use xlink:href="#DejaVuSans-20" transform="translate(3492.183594 0)"/>
     <use xlink:href="#DejaVuSans-64" transform="translate(3523.970703 0)"/>
     <use xlink:href="#DejaVuSans-65" transform="translate(3587.447266 0)"/>
     <use xlink:href="#DejaVuSans-20" transform="translate(3648.970703 0)"/>
     <use xlink:href="#DejaVuSans-63" transform="translate(3680.757812 0)"/>
     <use xlink:href="#DejaVuSans-6f" transform="translate(3735.738281 0)"/>
     <use xlink:href="#DejaVuSans-6e" transform="translate(3796.919922 0)"/>
     <use xlink:href="#DejaVuSans-74" transform="translate(3860.298828 0)"/>
     <use xlink:href="#DejaVuSans-65" transform="translate(3899.507812 0)"/>
     <use xlink:href="#DejaVuSans-78" transform="translate(3959.28125 0)"/>
     <use xlink:href="#DejaVuSans-74" transform="translate(4018.460938 0)"/>
     <use xlink:href="#DejaVuSans-6f" transform="translate(4057.669922 0)"/>
     <use xlink:href="#DejaVuSans-2e" transform="translate(4117.101562 0)"/>
    </g>
   </g>
   <g id="text_7">
    <!-- Skip-Gram: predecir contexto desde una palabra central -->
    <g transform="translate(32.696406 50.76) scale(0.14 -0.14)">
     <defs>
      <path id="DejaVuSans-53" d="M 3425 4513 
L 3425 3897 
Q 3066 4069 2747 4153 
Q 2428 4238 2131 4238 
Q 1616 4238 1336 4038 
Q 1056 3838 1056 3469 
Q 1056 3159 1242 3001 
Q 1428 2844 1947 2747 
L 2328 2669 
Q 3034 2534 3370 2195 
Q 3706 1856 3706 1288 
Q 3706 609 3251 259 
Q 2797 -91 1919 -91 
Q 1588 -91 1214 -16 
Q 841 59 441 206 
L 441 856 
Q 825 641 1194 531 
Q 1563 422 1919 422 
Q 2459 422 2753 634 
Q 3047 847 3047 1241 
Q 3047 1584 2836 1778 
Q 2625 1972 2144 2069 
L 1759 2144 
Q 1053 2284 737 2584 
Q 422 2884 422 3419 
Q 422 4038 858 4394 
Q 1294 4750 2059 4750 
Q 2388 4750 2728 4690 
Q 3069 4631 3425 4513 
z
" transform="scale(0.015625)"/>
      <path id="DejaVuSans-6b" d="M 581 4863 
L 1159 4863 
L 1159 1991 
L 2875 3500 
L 3609 3500 
L 1753 1863 
L 3688 0 
L 2938 0 
L 1159 1709 
L 1159 0 
L 581 0 
L 581 4863 
z
" transform="scale(0.015625)"/>
      <path id="DejaVuSans-2d" d="M 313 2009 
L 1997 2009 
L 1997 1497 
L 313 1497 
L 313 2009 
z
" transform="scale(0.015625)"/>
      <path id="DejaVuSans-47" d="M 3809 666 
L 3809 1919 
L 2778 1919 
L 2778 2438 
L 4434 2438 
L 4434 434 
Q 4069 175 3628 42 
Q 3188 -91 2688 -91 
Q 1594 -91 976 548 
Q 359 1188 359 2328 
Q 359 3472 976 4111 
Q 1594 4750 2688 4750 
Q 3144 4750 3555 4637 
Q 3966 4525 4313 4306 
L 4313 3634 
Q 3963 3931 3569 4081 
Q 3175 4231 2741 4231 
Q 1884 4231 1454 3753 
Q 1025 3275 1025 2328 
Q 1025 1384 1454 906 
Q 1884 428 2741 428 
Q 3075 428 3337 486 
Q 3600 544 3809 666 
z
" transform="scale(0.015625)"/>
      <path id="DejaVuSans-3a" d="M 750 794 
L 1409 794 
L 1409 0 
L 750 0 
L 750 794 
z
M 750 3309 
L 1409 3309 
L 1409 2516 
L 750 2516 
L 750 3309 
z
" transform="scale(0.015625)"/>
      <path id="DejaVuSans-75" d="M 544 1381 
L 544 3500 
L 1119 3500 
L 1119 1403 
Q 1119 906 1312 657 
Q 1506 409 1894 409 
Q 2359 409 2629 706 
Q 2900 1003 2900 1516 
L 2900 3500 
L 3475 3500 
L 3475 0 
L 2900 0 
L 2900 538 
Q 2691 219 2414 64 
Q 2138 -91 1772 -91 
Q 1169 -91 856 284 
Q 544 659 544 1381 
z
M 1991 3584 
L 1991 3584 
z
" transform="scale(0.015625)"/>
     </defs>
     <use xlink:href="#DejaVuSans-53"/>
     <use xlink:href="#DejaVuSans-6b" transform="translate(63.476562 0)"/>
     <use xlink:href="#DejaVuSans-69" transform="translate(121.386719 0)"/>
     <use xlink:href="#DejaVuSans-70" transform="translate(149.169922 0)"/>
     <use xlink:href="#DejaVuSans-2d" transform="translate(212.646484 0)"/>
     <use xlink:href="#DejaVuSans-47" transform="translate(252.355469 0)"/>
     <use xlink:href="#DejaVuSans-72" transform="translate(329.845703 0)"/>
     <use xlink:href="#DejaVuSans-61" transform="translate(370.958984 0)"/>
     <use xlink:href="#DejaVuSans-6d" transform="translate(432.238281 0)"/>
     <use xlink:href="#DejaVuSans-3a" transform="translate(529.650391 0)"/>
     <use xlink:href="#DejaVuSans-20" transform="translate(563.341797 0)"/>
     <use xlink:href="#DejaVuSans-70" transform="translate(595.128906 0)"/>
     <use xlink:href="#DejaVuSans-72" transform="translate(658.605469 0)"/>
     <use xlink:href="#DejaVuSans-65" transform="translate(697.46875 0)"/>
     <use xlink:href="#DejaVuSans-64" transform="translate(758.992188 0)"/>
     <use xlink:href="#DejaVuSans-65" transform="translate(822.46875 0)"/>
     <use xlink:href="#DejaVuSans-63" transform="translate(883.992188 0)"/>
     <use xlink:href="#DejaVuSans-69" transform="translate(938.972656 0)"/>
     <use xlink:href="#DejaVuSans-72" transform="translate(966.755859 0)"/>
     <use xlink:href="#DejaVuSans-20" transform="translate(1007.869141 0)"/>
     <use xlink:href="#DejaVuSans-63" transform="translate(1039.65625 0)"/>
     <use xlink:href="#DejaVuSans-6f" transform="translate(1094.636719 0)"/>
     <use xlink:href="#DejaVuSans-6e" transform="translate(1155.818359 0)"/>
     <use xlink:href="#DejaVuSans-74" transform="translate(1219.197266 0)"/>
     <use xlink:href="#DejaVuSans-65" transform="translate(1258.40625 0)"/>
     <use xlink:href="#DejaVuSans-78" transform="translate(1318.179688 0)"/>
     <use xlink:href="#DejaVuSans-74" transform="translate(1377.359375 0)"/>
     <use xlink:href="#DejaVuSans-6f" transform="translate(1416.568359 0)"/>
     <use xlink:href="#DejaVuSans-20" transform="translate(1477.75 0)"/>
     <use xlink:href="#DejaVuSans-64" transform="translate(1509.537109 0)"/>
     <use xlink:href="#DejaVuSans-65" transform="translate(1573.013672 0)"/>
     <use xlink:href="#DejaVuSans-73" transform="translate(1634.537109 0)"/>
     <use xlink:href="#DejaVuSans-64" transform="translate(1686.636719 0)"/>
     <use xlink:href="#DejaVuSans-65" transform="translate(1750.113281 0)"/>
     <use xlink:href="#DejaVuSans-20" transform="translate(1811.636719 0)"/>
     <use xlink:href="#DejaVuSans-75" transform="translate(1843.423828 0)"/>
     <use xlink:href="#DejaVuSans-6e" transform="translate(1906.802734 0)"/>
     <use xlink:href="#DejaVuSans-61" transform="translate(1970.181641 0)"/>
     <use xlink:href="#DejaVuSans-20" transform="translate(2031.460938 0)"/>
     <use xlink:href="#DejaVuSans-70" transform="translate(2063.248047 0)"/>
     <use xlink:href="#DejaVuSans-61" transform="translate(2126.724609 0)"/>
     <use xlink:href="#DejaVuSans-6c" transform="translate(2188.003906 0)"/>
     <use xlink:href="#DejaVuSans-61" transform="translate(2215.787109 0)"/>
     <use xlink:href="#DejaVuSans-62" transform="translate(2277.066406 0)"/>
     <use xlink:href="#DejaVuSans-72" transform="translate(2340.542969 0)"/>
     <use xlink:href="#DejaVuSans-61" transform="translate(2381.65625 0)"/>
     <use xlink:href="#DejaVuSans-20" transform="translate(2442.935547 0)"/>
     <use xlink:href="#DejaVuSans-63" transform="translate(2474.722656 0)"/>
     <use xlink:href="#DejaVuSans-65" transform="translate(2529.703125 0)"/>
     <use xlink:href="#DejaVuSans-6e" transform="translate(2591.226562 0)"/>
     <use xlink:href="#DejaVuSans-74" transform="translate(2654.605469 0)"/>
     <use xlink:href="#DejaVuSans-72" transform="translate(2693.814453 0)"/>
     <use xlink:href="#DejaVuSans-61" transform="translate(2734.927734 0)"/>
     <use xlink:href="#DejaVuSans-6c" transform="translate(2796.207031 0)"/>
    </g>
   </g>
  </g>
  <g id="axes_2">
   <g id="text_8">
    <g id="patch_11">
     <path d="M 645.807031 241.719088 
L 668.147969 241.719088 
Q 673.747969 241.719088 673.747969 236.119088 
L 673.747969 222.569713 
Q 673.747969 216.969713 668.147969 216.969713 
L 645.807031 216.969713 
Q 640.207031 216.969713 640.207031 222.569713 
L 640.207031 236.119088 
Q 640.207031 241.719088 645.807031 241.719088 
z
" style="fill: #ffeda0; stroke: #fdae6b; stroke-width: 2; stroke-linejoin: miter"/>
    </g>
    <!-- rey -->
    <g transform="translate(645.807031 233.207525) scale(0.14 -0.14)">
     <use xlink:href="#DejaVuSans-72"/>
     <use xlink:href="#DejaVuSans-65" transform="translate(38.863281 0)"/>
     <use xlink:href="#DejaVuSans-79" transform="translate(100.386719 0)"/>
    </g>
   </g>
   <g id="text_9">
    <g id="patch_12">
     <path d="M 546.323727 130.710008 
L 594.046227 130.710008 
Q 599.646227 130.710008 599.646227 125.110008 
L 599.646227 111.560633 
Q 599.646227 105.960633 594.046227 105.960633 
L 546.323727 105.960633 
Q 540.723727 105.960633 540.723727 111.560633 
L 540.723727 125.110008 
Q 540.723727 130.710008 546.323727 130.710008 
z
" style="fill: #c6dbef; stroke: #6baed6; stroke-width: 2; stroke-linejoin: miter"/>
    </g>
    <!-- corona -->
    <g transform="translate(546.323727 122.198445) scale(0.14 -0.14)">
     <use xlink:href="#DejaVuSans-63"/>
     <use xlink:href="#DejaVuSans-6f" transform="translate(54.980469 0)"/>
     <use xlink:href="#DejaVuSans-72" transform="translate(116.162109 0)"/>
     <use xlink:href="#DejaVuSans-6f" transform="translate(155.025391 0)"/>
     <use xlink:href="#DejaVuSans-6e" transform="translate(216.207031 0)"/>
     <use xlink:href="#DejaVuSans-61" transform="translate(279.585938 0)"/>
    </g>
   </g>
   <g id="patch_13">
    <path d="M 583.690747 135.609425 
Q 611.828389 171.597937 638.588753 205.824886 
" style="fill: none; stroke: #2a3f5f; stroke-width: 2; stroke-linecap: round"/>
    <path d="M 637.700591 201.441832 
L 638.588753 205.824886 
L 634.549412 203.905583 
" style="fill: none; stroke: #2a3f5f; stroke-width: 2; stroke-linecap: round"/>
   </g>
   <g id="text_10">
    <g id="patch_14">
     <path d="M 725.303148 130.710008 
L 762.236898 130.710008 
Q 767.836898 130.710008 767.836898 125.110008 
L 767.836898 111.560633 
Q 767.836898 105.960633 762.236898 105.960633 
L 725.303148 105.960633 
Q 719.703148 105.960633 719.703148 111.560633 
L 719.703148 125.110008 
Q 719.703148 130.710008 725.303148 130.710008 
z
" style="fill: #c6dbef; stroke: #6baed6; stroke-width: 2; stroke-linejoin: miter"/>
    </g>
    <!-- trono -->
    <g transform="translate(725.303148 122.198445) scale(0.14 -0.14)">
     <use xlink:href="#DejaVuSans-74"/>
     <use xlink:href="#DejaVuSans-72" transform="translate(39.208984 0)"/>
     <use xlink:href="#DejaVuSans-6f" transform="translate(78.072266 0)"/>
     <use xlink:href="#DejaVuSans-6e" transform="translate(139.253906 0)"/>
     <use xlink:href="#DejaVuSans-6f" transform="translate(202.632812 0)"/>
    </g>
   </g>
   <g id="patch_15">
    <path d="M 730.264253 135.609425 
Q 702.126611 171.597937 675.366247 205.824886 
" style="fill: none; stroke: #2a3f5f; stroke-width: 2; stroke-linecap: round"/>
    <path d="M 679.405588 203.905583 
L 675.366247 205.824886 
L 676.254409 201.441832 
" style="fill: none; stroke: #2a3f5f; stroke-width: 2; stroke-linecap: round"/>
   </g>
   <g id="text_11">
    <g id="patch_16">
     <path d="M 552.487009 352.728168 
L 587.882946 352.728168 
Q 593.482946 352.728168 593.482946 347.128168 
L 593.482946 333.578793 
Q 593.482946 327.978792 587.882946 327.978792 
L 552.487009 327.978792 
Q 546.887009 327.978792 546.887009 333.578793 
L 546.887009 347.128168 
Q 546.887009 352.728168 552.487009 352.728168 
z
" style="fill: #c6dbef; stroke: #6baed6; stroke-width: 2; stroke-linejoin: miter"/>
    </g>
    <!-- reina -->
    <g transform="translate(552.487009 344.216605) scale(0.14 -0.14)">
     <use xlink:href="#DejaVuSans-72"/>
     <use xlink:href="#DejaVuSans-65" transform="translate(38.863281 0)"/>
     <use xlink:href="#DejaVuSans-69" transform="translate(100.386719 0)"/>
     <use xlink:href="#DejaVuSans-6e" transform="translate(128.169922 0)"/>
     <use xlink:href="#DejaVuSans-61" transform="translate(191.548828 0)"/>
    </g>
   </g>
   <g id="patch_17">
    <path d="M 583.690747 323.079375 
Q 611.828389 287.090863 638.588753 252.863914 
" style="fill: none; stroke: #2a3f5f; stroke-width: 2; stroke-linecap: round"/>
    <path d="M 634.549412 254.783217 
L 638.588753 252.863914 
L 637.700591 257.246968 
" style="fill: none; stroke: #2a3f5f; stroke-width: 2; stroke-linecap: round"/>
   </g>
   <g id="text_12">
    <g id="patch_18">
     <path d="M 719.12346 352.728168 
L 768.416585 352.728168 
Q 774.016585 352.728168 774.016585 347.128168 
L 774.016585 333.578793 
Q 774.016585 327.978792 768.416585 327.978792 
L 719.12346 327.978792 
Q 713.52346 327.978792 713.52346 333.578793 
L 713.52346 347.128168 
Q 713.52346 352.728168 719.12346 352.728168 
z
" style="fill: #c6dbef; stroke: #6baed6; stroke-width: 2; stroke-linejoin: miter"/>
    </g>
    <!-- castillo -->
    <g transform="translate(719.12346 344.216605) scale(0.14 -0.14)">
     <use xlink:href="#DejaVuSans-63"/>
     <use xlink:href="#DejaVuSans-61" transform="translate(54.980469 0)"/>
     <use xlink:href="#DejaVuSans-73" transform="translate(116.259766 0)"/>
     <use xlink:href="#DejaVuSans-74" transform="translate(168.359375 0)"/>
     <use xlink:href="#DejaVuSans-69" transform="translate(207.568359 0)"/>
     <use xlink:href="#DejaVuSans-6c" transform="translate(235.351562 0)"/>
     <use xlink:href="#DejaVuSans-6c" transform="translate(263.134766 0)"/>
     <use xlink:href="#DejaVuSans-6f" transform="translate(290.917969 0)"/>
    </g>
   </g>
   <g id="patch_19">
    <path d="M 730.264253 323.079375 
Q 702.126611 287.090863 675.366247 252.863914 
" style="fill: none; stroke: #2a3f5f; stroke-width: 2; stroke-linecap: round"/>
    <path d="M 676.254409 257.246968 
L 675.366247 252.863914 
L 679.405588 254.783217 
" style="fill: none; stroke: #2a3f5f; stroke-width: 2; stroke-linecap: round"/>
   </g>
   <g id="text_13">
    <!-- Se combinan embeddings de contexto para reconstruir la palabra objetivo. -->
    <g transform="translate(431.580938 416.613554) scale(0.12 -0.12)">
     <defs>
      <path id="DejaVuSans-6a" d="M 603 3500 
L 1178 3500 
L 1178 -63 
Q 1178 -731 923 -1031 
Q 669 -1331 103 -1331 
L -116 -1331 
L -116 -844 
L 38 -844 
Q 366 -844 484 -692 
Q 603 -541 603 -63 
L 603 3500 
z
M 603 4863 
L 1178 4863 
L 1178 4134 
L 603 4134 
L 603 4863 
z
" transform="scale(0.015625)"/>
     </defs>
     <use xlink:href="#DejaVuSans-53"/>
     <use xlink:href="#DejaVuSans-65" transform="translate(63.476562 0)"/>
     <use xlink:href="#DejaVuSans-20" transform="translate(125 0)"/>
     <use xlink:href="#DejaVuSans-63" transform="translate(156.787109 0)"/>
     <use xlink:href="#DejaVuSans-6f" transform="translate(211.767578 0)"/>
     <use xlink:href="#DejaVuSans-6d" transform="translate(272.949219 0)"/>
     <use xlink:href="#DejaVuSans-62" transform="translate(370.361328 0)"/>
     <use xlink:href="#DejaVuSans-69" transform="translate(433.837891 0)"/>
     <use xlink:href="#DejaVuSans-6e" transform="translate(461.621094 0)"/>
     <use xlink:href="#DejaVuSans-61" transform="translate(525 0)"/>
     <use xlink:href="#DejaVuSans-6e" transform="translate(586.279297 0)"/>
     <use xlink:href="#DejaVuSans-20" transform="translate(649.658203 0)"/>
     <use xlink:href="#DejaVuSans-65" transform="translate(681.445312 0)"/>
     <use xlink:href="#DejaVuSans-6d" transform="translate(742.96875 0)"/>
     <use xlink:href="#DejaVuSans-62" transform="translate(840.380859 0)"/>
     <use xlink:href="#DejaVuSans-65" transform="translate(903.857422 0)"/>
     <use xlink:href="#DejaVuSans-64" transform="translate(965.380859 0)"/>
     <use xlink:href="#DejaVuSans-64" transform="translate(1028.857422 0)"/>
     <use xlink:href="#DejaVuSans-69" transform="translate(1092.333984 0)"/>
     <use xlink:href="#DejaVuSans-6e" transform="translate(1120.117188 0)"/>
     <use xlink:href="#DejaVuSans-67" transform="translate(1183.496094 0)"/>
     <use xlink:href="#DejaVuSans-73" transform="translate(1246.972656 0)"/>
     <use xlink:href="#DejaVuSans-20" transform="translate(1299.072266 0)"/>
     <use xlink:href="#DejaVuSans-64" transform="translate(1330.859375 0)"/>
     <use xlink:href="#DejaVuSans-65" transform="translate(1394.335938 0)"/>
     <use xlink:href="#DejaVuSans-20" transform="translate(1455.859375 0)"/>
     <use xlink:href="#DejaVuSans-63" transform="translate(1487.646484 0)"/>
     <use xlink:href="#DejaVuSans-6f" transform="translate(1542.626953 0)"/>
     <use xlink:href="#DejaVuSans-6e" transform="translate(1603.808594 0)"/>
     <use xlink:href="#DejaVuSans-74" transform="translate(1667.1875 0)"/>
     <use xlink:href="#DejaVuSans-65" transform="translate(1706.396484 0)"/>
     <use xlink:href="#DejaVuSans-78" transform="translate(1766.169922 0)"/>
     <use xlink:href="#DejaVuSans-74" transform="translate(1825.349609 0)"/>
     <use xlink:href="#DejaVuSans-6f" transform="translate(1864.558594 0)"/>
     <use xlink:href="#DejaVuSans-20" transform="translate(1925.740234 0)"/>
     <use xlink:href="#DejaVuSans-70" transform="translate(1957.527344 0)"/>
     <use xlink:href="#DejaVuSans-61" transform="translate(2021.003906 0)"/>
     <use xlink:href="#DejaVuSans-72" transform="translate(2082.283203 0)"/>
     <use xlink:href="#DejaVuSans-61" transform="translate(2123.396484 0)"/>
     <use xlink:href="#DejaVuSans-20" transform="translate(2184.675781 0)"/>
     <use xlink:href="#DejaVuSans-72" transform="translate(2216.462891 0)"/>
     <use xlink:href="#DejaVuSans-65" transform="translate(2255.326172 0)"/>
     <use xlink:href="#DejaVuSans-63" transform="translate(2316.849609 0)"/>
     <use xlink:href="#DejaVuSans-6f" transform="translate(2371.830078 0)"/>
     <use xlink:href="#DejaVuSans-6e" transform="translate(2433.011719 0)"/>
     <use xlink:href="#DejaVuSans-73" transform="translate(2496.390625 0)"/>
     <use xlink:href="#DejaVuSans-74" transform="translate(2548.490234 0)"/>
     <use xlink:href="#DejaVuSans-72" transform="translate(2587.699219 0)"/>
     <use xlink:href="#DejaVuSans-75" transform="translate(2628.8125 0)"/>
     <use xlink:href="#DejaVuSans-69" transform="translate(2692.191406 0)"/>
     <use xlink:href="#DejaVuSans-72" transform="translate(2719.974609 0)"/>
     <use xlink:href="#DejaVuSans-20" transform="translate(2761.087891 0)"/>
     <use xlink:href="#DejaVuSans-6c" transform="translate(2792.875 0)"/>
     <use xlink:href="#DejaVuSans-61" transform="translate(2820.658203 0)"/>
     <use xlink:href="#DejaVuSans-20" transform="translate(2881.9375 0)"/>
     <use xlink:href="#DejaVuSans-70" transform="translate(2913.724609 0)"/>
     <use xlink:href="#DejaVuSans-61" transform="translate(2977.201172 0)"/>
     <use xlink:href="#DejaVuSans-6c" transform="translate(3038.480469 0)"/>
     <use xlink:href="#DejaVuSans-61" transform="translate(3066.263672 0)"/>
     <use xlink:href="#DejaVuSans-62" transform="translate(3127.542969 0)"/>
     <use xlink:href="#DejaVuSans-72" transform="translate(3191.019531 0)"/>
     <use xlink:href="#DejaVuSans-61" transform="translate(3232.132812 0)"/>
     <use xlink:href="#DejaVuSans-20" transform="translate(3293.412109 0)"/>
     <use xlink:href="#DejaVuSans-6f" transform="translate(3325.199219 0)"/>
     <use xlink:href="#DejaVuSans-62" transform="translate(3386.380859 0)"/>
     <use xlink:href="#DejaVuSans-6a" transform="translate(3449.857422 0)"/>
     <use xlink:href="#DejaVuSans-65" transform="translate(3477.640625 0)"/>
     <use xlink:href="#DejaVuSans-74" transform="translate(3539.164062 0)"/>
     <use xlink:href="#DejaVuSans-69" transform="translate(3578.373047 0)"/>
     <use xlink:href="#DejaVuSans-76" transform="translate(3606.15625 0)"/>
     <use xlink:href="#DejaVuSans-6f" transform="translate(3665.335938 0)"/>
     <use xlink:href="#DejaVuSans-2e" transform="translate(3724.767578 0)"/>
    </g>
   </g>
   <g id="text_14">
    <!-- CBOW: predecir palabra central desde su contexto -->
    <g transform="translate(479.862188 50.76) scale(0.14 -0.14)">
     <defs>
      <path id="DejaVuSans-43" d="M 4122 4306 
L 4122 3641 
Q 3803 3938 3442 4084 
Q 3081 4231 2675 4231 
Q 1875 4231 1450 3742 
Q 1025 3253 1025 2328 
Q 1025 1406 1450 917 
Q 1875 428 2675 428 
Q 3081 428 3442 575 
Q 3803 722 4122 1019 
L 4122 359 
Q 3791 134 3420 21 
Q 3050 -91 2638 -91 
Q 1578 -91 968 557 
Q 359 1206 359 2328 
Q 359 3453 968 4101 
Q 1578 4750 2638 4750 
Q 3056 4750 3426 4639 
Q 3797 4528 4122 4306 
z
" transform="scale(0.015625)"/>
      <path id="DejaVuSans-42" d="M 1259 2228 
L 1259 519 
L 2272 519 
Q 2781 519 3026 730 
Q 3272 941 3272 1375 
Q 3272 1813 3026 2020 
Q 2781 2228 2272 2228 
L 1259 2228 
z
M 1259 4147 
L 1259 2741 
L 2194 2741 
Q 2656 2741 2882 2914 
Q 3109 3088 3109 3444 
Q 3109 3797 2882 3972 
Q 2656 4147 2194 4147 
L 1259 4147 
z
M 628 4666 
L 2241 4666 
Q 2963 4666 3353 4366 
Q 3744 4066 3744 3513 
Q 3744 3084 3544 2831 
Q 3344 2578 2956 2516 
Q 3422 2416 3680 2098 
Q 3938 1781 3938 1306 
Q 3938 681 3513 340 
Q 3088 0 2303 0 
L 628 0 
L 628 4666 
z
" transform="scale(0.015625)"/>
      <path id="DejaVuSans-4f" d="M 2522 4238 
Q 1834 4238 1429 3725 
Q 1025 3213 1025 2328 
Q 1025 1447 1429 934 
Q 1834 422 2522 422 
Q 3209 422 3611 934 
Q 4013 1447 4013 2328 
Q 4013 3213 3611 3725 
Q 3209 4238 2522 4238 
z
M 2522 4750 
Q 3503 4750 4090 4092 
Q 4678 3434 4678 2328 
Q 4678 1225 4090 567 
Q 3503 -91 2522 -91 
Q 1538 -91 948 565 
Q 359 1222 359 2328 
Q 359 3434 948 4092 
Q 1538 4750 2522 4750 
z
" transform="scale(0.015625)"/>
      <path id="DejaVuSans-57" d="M 213 4666 
L 850 4666 
L 1831 722 
L 2809 4666 
L 3519 4666 
L 4500 722 
L 5478 4666 
L 6119 4666 
L 4947 0 
L 4153 0 
L 3169 4050 
L 2175 0 
L 1381 0 
L 213 4666 
z
" transform="scale(0.015625)"/>
     </defs>
     <use xlink:href="#DejaVuSans-43"/>
     <use xlink:href="#DejaVuSans-42" transform="translate(69.824219 0)"/>
     <use xlink:href="#DejaVuSans-4f" transform="translate(136.677734 0)"/>
     <use xlink:href="#DejaVuSans-57" transform="translate(215.388672 0)"/>
     <use xlink:href="#DejaVuSans-3a" transform="translate(308.390625 0)"/>
     <use xlink:href="#DejaVuSans-20" transform="translate(342.082031 0)"/>
     <use xlink:href="#DejaVuSans-70" transform="translate(373.869141 0)"/>
     <use xlink:href="#DejaVuSans-72" transform="translate(437.345703 0)"/>
     <use xlink:href="#DejaVuSans-65" transform="translate(476.208984 0)"/>
     <use xlink:href="#DejaVuSans-64" transform="translate(537.732422 0)"/>
     <use xlink:href="#DejaVuSans-65" transform="translate(601.208984 0)"/>
     <use xlink:href="#DejaVuSans-63" transform="translate(662.732422 0)"/>
     <use xlink:href="#DejaVuSans-69" transform="translate(717.712891 0)"/>
     <use xlink:href="#DejaVuSans-72" transform="translate(745.496094 0)"/>
     <use xlink:href="#DejaVuSans-20" transform="translate(786.609375 0)"/>
     <use xlink:href="#DejaVuSans-70" transform="translate(818.396484 0)"/>
     <use xlink:href="#DejaVuSans-61" transform="translate(881.873047 0)"/>
     <use xlink:href="#DejaVuSans-6c" transform="translate(943.152344 0)"/>
     <use xlink:href="#DejaVuSans-61" transform="translate(970.935547 0)"/>
     <use xlink:href="#DejaVuSans-62" transform="translate(1032.214844 0)"/>
     <use xlink:href="#DejaVuSans-72" transform="translate(1095.691406 0)"/>
     <use xlink:href="#DejaVuSans-61" transform="translate(1136.804688 0)"/>
     <use xlink:href="#DejaVuSans-20" transform="translate(1198.083984 0)"/>
     <use xlink:href="#DejaVuSans-63" transform="translate(1229.871094 0)"/>
     <use xlink:href="#DejaVuSans-65" transform="translate(1284.851562 0)"/>
     <use xlink:href="#DejaVuSans-6e" transform="translate(1346.375 0)"/>
     <use xlink:href="#DejaVuSans-74" transform="translate(1409.753906 0)"/>
     <use xlink:href="#DejaVuSans-72" transform="translate(1448.962891 0)"/>
     <use xlink:href="#DejaVuSans-61" transform="translate(1490.076172 0)"/>
     <use xlink:href="#DejaVuSans-6c" transform="translate(1551.355469 0)"/>
     <use xlink:href="#DejaVuSans-20" transform="translate(1579.138672 0)"/>
     <use xlink:href="#DejaVuSans-64" transform="translate(1610.925781 0)"/>
     <use xlink:href="#DejaVuSans-65" transform="translate(1674.402344 0)"/>
     <use xlink:href="#DejaVuSans-73" transform="translate(1735.925781 0)"/>
     <use xlink:href="#DejaVuSans-64" transform="translate(1788.025391 0)"/>
     <use xlink:href="#DejaVuSans-65" transform="translate(1851.501953 0)"/>
     <use xlink:href="#DejaVuSans-20" transform="translate(1913.025391 0)"/>
     <use xlink:href="#DejaVuSans-73" transform="translate(1944.8125 0)"/>
     <use xlink:href="#DejaVuSans-75" transform="translate(1996.912109 0)"/>
     <use xlink:href="#DejaVuSans-20" transform="translate(2060.291016 0)"/>
     <use xlink:href="#DejaVuSans-63" transform="translate(2092.078125 0)"/>
     <use xlink:href="#DejaVuSans-6f" transform="translate(2147.058594 0)"/>
     <use xlink:href="#DejaVuSans-6e" transform="translate(2208.240234 0)"/>
     <use xlink:href="#DejaVuSans-74" transform="translate(2271.619141 0)"/>
     <use xlink:href="#DejaVuSans-65" transform="translate(2310.828125 0)"/>
     <use xlink:href="#DejaVuSans-78" transform="translate(2370.601562 0)"/>
     <use xlink:href="#DejaVuSans-74" transform="translate(2429.78125 0)"/>
     <use xlink:href="#DejaVuSans-6f" transform="translate(2468.990234 0)"/>
    </g>
   </g>
  </g>
  <g id="text_15">
   <!-- Comparación de arquitecturas Word2Vec -->
   <g transform="translate(247.575938 23.037187) scale(0.18 -0.18)">
    <defs>
     <path id="DejaVuSans-f3" d="M 1959 3097 
Q 1497 3097 1228 2736 
Q 959 2375 959 1747 
Q 959 1119 1226 758 
Q 1494 397 1959 397 
Q 2419 397 2687 759 
Q 2956 1122 2956 1747 
Q 2956 2369 2687 2733 
Q 2419 3097 1959 3097 
z
M 1959 3584 
Q 2709 3584 3137 3096 
Q 3566 2609 3566 1747 
Q 3566 888 3137 398 
Q 2709 -91 1959 -91 
Q 1206 -91 779 398 
Q 353 888 353 1747 
Q 353 2609 779 3096 
Q 1206 3584 1959 3584 
z
M 2394 5119 
L 3016 5119 
L 1998 3944 
L 1519 3944 
L 2394 5119 
z
" transform="scale(0.015625)"/>
     <path id="DejaVuSans-71" d="M 947 1747 
Q 947 1113 1208 752 
Q 1469 391 1925 391 
Q 2381 391 2643 752 
Q 2906 1113 2906 1747 
Q 2906 2381 2643 2742 
Q 2381 3103 1925 3103 
Q 1469 3103 1208 2742 
Q 947 2381 947 1747 
z
M 2906 525 
Q 2725 213 2448 61 
Q 2172 -91 1784 -91 
Q 1150 -91 751 415 
Q 353 922 353 1747 
Q 353 2572 751 3078 
Q 1150 3584 1784 3584 
Q 2172 3584 2448 3432 
Q 2725 3281 2906 2969 
L 2906 3500 
L 3481 3500 
L 3481 -1331 
L 2906 -1331 
L 2906 525 
z
" transform="scale(0.015625)"/>
     <path id="DejaVuSans-32" d="M 1228 531 
L 3431 531 
L 3431 0 
L 469 0 
L 469 531 
Q 828 903 1448 1529 
Q 2069 2156 2228 2338 
Q 2531 2678 2651 2914 
Q 2772 3150 2772 3378 
Q 2772 3750 2511 3984 
Q 2250 4219 1831 4219 
Q 1534 4219 1204 4116 
Q 875 4013 500 3803 
L 500 4441 
Q 881 4594 1212 4672 
Q 1544 4750 1819 4750 
Q 2544 4750 2975 4387 
Q 3406 4025 3406 3419 
Q 3406 3131 3298 2873 
Q 3191 2616 2906 2266 
Q 2828 2175 2409 1742 
Q 1991 1309 1228 531 
z
" transform="scale(0.015625)"/>
     <path id="DejaVuSans-56" d="M 1831 0 
L 50 4666 
L 709 4666 
L 2188 738 
L 3669 4666 
L 4325 4666 
L 2547 0 
L 1831 0 
z
" transform="scale(0.015625)"/>
    </defs>
    <use xlink:href="#DejaVuSans-43"/>
    <use xlink:href="#DejaVuSans-6f" transform="translate(69.824219 0)"/>
    <use xlink:href="#DejaVuSans-6d" transform="translate(131.005859 0)"/>
    <use xlink:href="#DejaVuSans-70" transform="translate(228.417969 0)"/>
    <use xlink:href="#DejaVuSans-61" transform="translate(291.894531 0)"/>
    <use xlink:href="#DejaVuSans-72" transform="translate(353.173828 0)"/>
    <use xlink:href="#DejaVuSans-61" transform="translate(394.287109 0)"/>
    <use xlink:href="#DejaVuSans-63" transform="translate(455.566406 0)"/>
    <use xlink:href="#DejaVuSans-69" transform="translate(510.546875 0)"/>
    <use xlink:href="#DejaVuSans-f3" transform="translate(538.330078 0)"/>
    <use xlink:href="#DejaVuSans-6e" transform="translate(599.511719 0)"/>
    <use xlink:href="#DejaVuSans-20" transform="translate(662.890625 0)"/>
    <use xlink:href="#DejaVuSans-64" transform="translate(694.677734 0)"/>
    <use xlink:href="#DejaVuSans-65" transform="translate(758.154297 0)"/>
    <use xlink:href="#DejaVuSans-20" transform="translate(819.677734 0)"/>
    <use xlink:href="#DejaVuSans-61" transform="translate(851.464844 0)"/>
    <use xlink:href="#DejaVuSans-72" transform="translate(912.744141 0)"/>
    <use xlink:href="#DejaVuSans-71" transform="translate(952.107422 0)"/>
    <use xlink:href="#DejaVuSans-75" transform="translate(1015.583984 0)"/>
    <use xlink:href="#DejaVuSans-69" transform="translate(1078.962891 0)"/>
    <use xlink:href="#DejaVuSans-74" transform="translate(1106.746094 0)"/>
    <use xlink:href="#DejaVuSans-65" transform="translate(1145.955078 0)"/>
    <use xlink:href="#DejaVuSans-63" transform="translate(1207.478516 0)"/>
    <use xlink:href="#DejaVuSans-74" transform="translate(1262.458984 0)"/>
    <use xlink:href="#DejaVuSans-75" transform="translate(1301.667969 0)"/>
    <use xlink:href="#DejaVuSans-72" transform="translate(1365.046875 0)"/>
    <use xlink:href="#DejaVuSans-61" transform="translate(1406.160156 0)"/>
    <use xlink:href="#DejaVuSans-73" transform="translate(1467.439453 0)"/>
    <use xlink:href="#DejaVuSans-20" transform="translate(1519.539062 0)"/>
    <use xlink:href="#DejaVuSans-57" transform="translate(1551.326172 0)"/>
    <use xlink:href="#DejaVuSans-6f" transform="translate(1644.328125 0)"/>
    <use xlink:href="#DejaVuSans-72" transform="translate(1705.509766 0)"/>
    <use xlink:href="#DejaVuSans-64" transform="translate(1744.873047 0)"/>
    <use xlink:href="#DejaVuSans-32" transform="translate(1808.349609 0)"/>
    <use xlink:href="#DejaVuSans-56" transform="translate(1871.972656 0)"/>
    <use xlink:href="#DejaVuSans-65" transform="translate(1932.630859 0)"/>
    <use xlink:href="#DejaVuSans-63" transform="translate(1994.154297 0)"/>
   </g>
  </g>
 </g>
</svg>
